<?xml version="1.0" standalone="no"?>
<!DOCTYPE svg PUBLIC "-//W3C//DTD SVG 20010904//EN"
 "http://www.w3.org/TR/2001/REC-SVG-20010904/DTD/svg10.dtd">
<svg version="1.0" xmlns="http://www.w3.org/2000/svg"
 width="16.000000pt" height="16.000000pt" viewBox="0 0 16.000000 16.000000"
 preserveAspectRatio="xMidYMid meet">
<metadata>
Created by potrace 1.11, written by Peter Selinger 2001-2013
</metadata>
<g transform="translate(0.000000,16.000000) scale(0.002996,-0.002996)"
fill="#000000" stroke="none">
<path d="M2600 5180 c-14 -4 -58 -40 -98 -79 -40 -39 -77 -71 -82 -71 -6 0
-10 -6 -10 -14 0 -19 -96 -124 -130 -141 -15 -8 -35 -30 -44 -49 -9 -19 -32
-43 -51 -55 -19 -11 -35 -24 -35 -29 0 -4 -30 -30 -66 -58 -36 -27 -74 -65
-84 -84 -10 -19 -32 -48 -49 -65 -17 -16 -38 -38 -48 -48 -81 -81 -96 -92
-131 -94 -21 -2 -48 -3 -62 -4 -14 -1 -43 -1 -65 0 -72 3 -488 -8 -516 -14
-15 -4 -36 -1 -48 6 -21 14 -40 8 -90 -30 -23 -18 -23 -21 -26 -207 -1 -104
-3 -197 -4 -208 0 -10 -18 -34 -38 -53 -38 -34 -38 -35 -38 -111 1 -63 5 -83
22 -107 14 -19 26 -56 32 -100 10 -78 3 -99 -45 -132 -27 -18 -61 -50 -79 -75
-72 -94 -103 -129 -117 -134 -9 -3 -28 -24 -42 -47 -13 -23 -65 -83 -114 -133
-50 -51 -93 -101 -97 -113 -3 -12 -14 -21 -23 -21 -23 -1 -56 -30 -75 -66 -9
-17 -23 -36 -31 -43 -9 -8 -16 -22 -16 -32 0 -29 38 -24 52 6 6 13 18 27 27
30 9 3 30 23 46 45 17 21 34 39 39 40 5 0 57 48 116 108 58 59 122 122 141
139 18 18 45 46 59 63 14 17 33 38 43 48 10 9 63 62 118 116 92 90 100 102 96
130 -6 41 -62 195 -76 209 -6 6 -11 32 -11 58 0 44 3 50 40 76 47 34 51 50 41
173 -4 52 -4 107 0 122 4 16 1 51 -9 87 -15 56 -15 62 -1 77 25 24 83 33 160
23 45 -5 78 -5 89 1 12 6 28 7 43 1 13 -5 43 -5 70 0 26 5 57 5 70 0 28 -11
181 -6 223 7 19 6 37 6 45 1 8 -5 43 -6 79 -3 l65 7 75 81 c41 44 102 107 135
138 33 32 63 61 67 65 5 5 26 32 48 61 22 28 47 52 56 52 8 0 18 8 21 18 10
27 67 92 81 92 7 0 21 19 31 43 13 30 33 51 70 76 29 18 58 45 64 60 14 31
103 118 130 125 13 3 24 -4 35 -24 10 -16 29 -34 43 -40 14 -6 33 -24 43 -40
9 -17 30 -37 47 -45 16 -9 29 -21 29 -27 0 -12 160 -168 173 -168 4 0 12 -13
18 -28 5 -16 28 -42 51 -58 22 -16 50 -40 62 -53 12 -14 51 -55 89 -92 37 -37
67 -73 67 -79 0 -6 11 -15 24 -22 14 -6 40 -32 58 -59 18 -27 46 -54 63 -61
33 -14 353 -13 592 1 70 4 139 5 154 1 30 -9 86 0 114 17 l20 13 -20 16 c-16
13 -42 15 -137 12 -64 -2 -120 0 -124 4 -7 8 -26 5 -100 -13 -31 -8 -53 -7
-90 3 -34 10 -97 14 -204 13 l-155 -1 -36 37 c-20 20 -45 39 -55 43 -11 3 -27
18 -36 33 -22 38 -69 81 -109 101 -18 9 -40 31 -49 47 -9 17 -31 38 -50 47
-19 10 -41 30 -49 45 -28 54 -63 92 -95 103 -31 10 -76 57 -76 79 0 15 -42 41
-67 41 -18 0 -23 6 -23 25 0 17 -9 29 -30 40 -16 9 -30 20 -30 25 0 6 -6 10
-14 10 -8 0 -25 14 -37 31 -12 17 -42 39 -66 50 -25 10 -45 19 -46 18 -1 0
-13 -4 -27 -9z"/>
<path d="M2626 4858 c-8 -13 -14 -43 -14 -68 0 -25 -1 -52 -3 -60 -3 -12 4
-14 31 -12 19 2 36 5 37 6 1 1 -1 36 -4 79 -6 82 -19 97 -47 55z"/>
<path d="M2509 4784 c-16 -19 -14 -126 3 -157 14 -27 41 -2 35 32 -3 14 -1 34
4 43 10 19 -7 98 -21 98 -4 0 -14 -7 -21 -16z"/>
<path d="M2755 4763 c-4 -15 -11 -39 -16 -52 -12 -29 -3 -58 21 -71 28 -15 38
13 31 84 -6 64 -26 85 -36 39z"/>
<path d="M2876 4668 c-2 -7 -8 -38 -14 -68 -9 -47 -8 -58 7 -79 27 -39 38 -36
44 11 4 24 9 59 12 79 6 31 3 38 -19 53 -20 13 -27 14 -30 4z"/>
<path d="M2396 4652 c-4 -6 -8 -41 -9 -76 -2 -50 2 -69 15 -82 16 -17 18 -16
28 10 16 44 12 111 -8 137 -13 15 -21 18 -26 11z"/>
<path d="M2977 4553 c-3 -16 -10 -48 -17 -72 -10 -40 -9 -47 10 -65 21 -21 21
-21 36 -2 8 11 14 32 14 46 0 14 5 31 11 37 8 8 7 21 -2 47 -16 44 -44 49 -52
9z"/>
<path d="M3065 4478 c-3 -7 -11 -36 -18 -65 -13 -47 -12 -54 6 -82 21 -34 47
-41 47 -14 0 10 7 37 17 61 15 40 15 46 0 78 -17 34 -43 45 -52 22z"/>
<path d="M3166 4393 c-3 -3 -6 -15 -6 -26 0 -10 -7 -31 -16 -47 -10 -16 -14
-37 -11 -52 9 -34 174 -205 186 -193 13 14 51 116 51 138 0 12 -10 20 -31 24
-23 4 -34 14 -41 35 -7 20 -19 31 -39 35 -21 4 -31 14 -39 39 -11 33 -41 60
-54 47z"/>
<path d="M2114 4365 c-18 -27 -15 -60 5 -60 15 0 44 69 34 79 -12 11 -23 6
-39 -19z"/>
<path d="M2265 4368 c-4 -13 -13 -30 -20 -38 -13 -15 -42 -109 -64 -210 -7
-30 -19 -73 -26 -95 -32 -94 -65 -213 -65 -232 0 -11 -7 -43 -15 -69 -22 -74
-45 -178 -45 -202 0 -16 11 -26 38 -38 56 -24 82 -6 99 69 13 60 56 159 82
190 26 31 64 21 122 -33 55 -51 91 -70 96 -53 2 6 10 18 17 28 13 18 18 16 89
-28 41 -26 99 -59 129 -73 98 -46 146 -79 235 -158 48 -44 92 -85 96 -92 4 -8
28 -27 52 -44 25 -17 55 -42 68 -55 31 -34 137 -95 163 -95 12 0 27 7 34 15
26 31 -4 66 -261 309 -69 65 -133 123 -143 128 -9 5 -38 30 -64 54 -26 24 -71
58 -100 75 -59 34 -105 88 -96 112 4 11 -6 23 -33 40 -66 43 -150 143 -230
277 -15 25 -39 60 -55 78 -15 18 -28 40 -28 48 0 9 -11 29 -25 46 -14 16 -25
36 -25 43 0 24 -18 26 -25 3z"/>
<path d="M4302 4337 c-7 -8 -9 -71 -6 -187 3 -96 5 -188 4 -205 -4 -85 2 -191
10 -199 6 -6 32 -5 70 2 34 6 67 9 75 5 15 -5 35 -62 35 -99 0 -12 -17 -41
-38 -65 -21 -24 -41 -51 -45 -60 -3 -10 -22 -22 -41 -29 -20 -6 -36 -18 -36
-25 0 -13 59 -65 112 -98 14 -9 29 -25 32 -35 7 -21 222 -242 235 -242 5 0 12
-9 16 -19 3 -11 19 -24 35 -30 17 -5 30 -16 30 -24 0 -13 175 -183 208 -201
10 -5 22 -15 27 -22 6 -7 19 -14 29 -16 27 -4 52 -92 37 -125 -17 -37 -4 -44
34 -22 39 23 40 28 22 80 -13 39 -109 139 -133 139 -7 0 -18 8 -23 18 -5 9
-30 37 -55 62 -24 24 -47 54 -50 65 -3 11 -21 30 -40 43 -19 13 -37 34 -40 47
-3 13 -15 27 -26 30 -11 4 -27 18 -34 33 -8 15 -40 50 -72 77 -32 28 -67 60
-78 73 -12 13 -49 52 -83 87 -35 35 -63 70 -63 79 0 8 15 26 33 40 36 28 80
105 80 141 0 72 -58 165 -103 165 -10 0 -34 7 -54 15 -28 12 -36 21 -37 43 0
15 -2 111 -4 213 -3 186 -14 259 -40 259 -7 0 -17 -6 -23 -13z"/>
<path d="M2016 4252 c-14 -27 -14 -31 0 -43 8 -7 22 -28 29 -47 29 -68 70 -3
45 71 -19 54 -52 62 -74 19z"/>
<path d="M1949 4187 c-9 -20 -6 -33 15 -76 29 -57 51 -65 67 -23 9 22 7 35
-13 72 -28 52 -53 62 -69 27z"/>
<path d="M3812 4153 c-20 -22 -69 -80 -109 -129 -40 -49 -91 -109 -113 -133
-48 -50 -48 -81 -2 -105 16 -8 50 -40 76 -70 26 -31 54 -56 61 -56 8 0 19 -9
24 -19 6 -10 24 -24 41 -29 16 -6 30 -16 30 -23 0 -16 37 -5 148 42 51 21 106
39 122 39 20 0 30 5 30 15 0 8 8 30 17 50 17 35 17 36 -8 61 l-25 25 -33 -41
c-32 -40 -61 -52 -61 -25 0 16 54 75 69 75 16 0 61 84 61 113 0 38 -15 41 -49
10 -17 -16 -44 -38 -60 -50 -50 -39 -71 -25 -26 17 14 13 25 30 25 37 0 8 22
37 50 66 51 53 71 100 50 120 -9 9 -18 4 -41 -23 -66 -80 -218 -222 -230 -215
-21 14 -2 44 91 146 25 27 55 61 68 75 33 37 29 64 -8 64 -26 0 -36 -8 -69
-59 -41 -64 -141 -170 -180 -190 -23 -13 -24 -13 -18 19 4 17 19 44 34 60 56
55 103 119 105 141 5 39 -29 35 -70 -8z m78 -493 c0 -5 -5 -10 -11 -10 -5 0
-7 5 -4 10 3 6 8 10 11 10 2 0 4 -4 4 -10z"/>
<path d="M3396 4116 c-40 -71 -47 -116 -18 -116 27 0 59 27 66 55 3 13 18 41
31 62 31 44 28 57 -12 61 -28 3 -33 -2 -67 -62z"/>
<path d="M3522 4141 c-18 -22 -32 -51 -32 -65 0 -16 -10 -32 -29 -46 -16 -11
-31 -30 -33 -43 -5 -29 35 -82 74 -98 29 -12 32 -11 52 14 12 15 38 48 59 73
20 25 37 48 37 52 0 4 23 31 50 61 60 65 65 91 16 91 -33 0 -69 -30 -102 -86
-19 -32 -25 -10 -9 30 19 44 13 56 -24 56 -20 0 -36 -11 -59 -39z"/>
<path d="M1596 4163 c-15 -15 -3 -54 29 -99 70 -100 115 -166 115 -174 0 -4 9
-15 20 -25 16 -15 25 -16 44 -7 13 6 27 20 31 31 3 11 16 21 28 23 18 2 22 9
22 40 0 26 3 34 11 27 16 -13 40 -2 58 26 14 21 13 25 -4 46 -11 12 -20 26
-20 32 0 5 -13 21 -28 35 -16 15 -31 34 -34 42 -4 12 -9 13 -24 4 -23 -14 -21
-46 5 -83 10 -14 21 -38 25 -53 10 -45 -19 -24 -54 38 -37 66 -64 94 -90 94
-28 0 -26 -32 6 -80 15 -22 24 -44 20 -48 -7 -7 -43 30 -79 82 -19 28 -71 59
-81 49z"/>
<path d="M1426 4151 c-7 -11 37 -71 90 -125 49 -50 72 -92 57 -107 -10 -10
-96 70 -192 180 -37 42 -50 51 -78 51 -40 0 -45 -26 -8 -40 14 -5 28 -18 32
-27 5 -15 77 -98 230 -266 19 -21 32 -42 28 -45 -3 -4 -21 9 -38 29 -18 20
-51 49 -75 64 -24 16 -48 37 -53 47 -5 10 -27 29 -47 42 -21 13 -59 44 -85 70
-26 25 -59 49 -72 52 -42 10 -32 -33 16 -75 22 -20 92 -88 154 -151 182 -185
209 -210 222 -210 7 0 20 14 28 30 9 17 27 35 40 40 18 7 25 17 25 35 0 18 5
25 20 25 12 0 22 9 25 23 5 16 -11 48 -60 122 -37 55 -77 111 -91 125 -13 14
-43 46 -65 73 -31 35 -49 47 -70 47 -15 0 -30 -4 -33 -9z"/>
<path d="M1180 3906 c0 -47 62 -126 99 -126 6 0 35 -24 65 -54 29 -30 76 -66
103 -79 55 -29 123 -45 123 -29 0 18 -135 131 -184 153 -14 7 -26 15 -26 19 0
10 -156 130 -169 130 -6 0 -11 -6 -11 -14z"/>
<path d="M1060 3718 c0 -12 11 -40 24 -62 13 -23 27 -57 31 -76 16 -75 142
-292 184 -318 12 -7 21 -18 21 -24 0 -7 35 -47 78 -90 42 -43 87 -88 98 -101
56 -59 135 -120 184 -143 30 -14 66 -39 79 -55 24 -31 99 -72 122 -67 12 2 13
-27 11 -171 -2 -112 -8 -185 -16 -205 -8 -21 -12 -68 -9 -144 2 -62 -1 -131
-6 -153 -6 -25 -5 -53 1 -75 6 -24 6 -53 -2 -89 -8 -39 -8 -70 -1 -112 10 -53
10 -59 -9 -73 -20 -15 -20 -18 -6 -105 22 -132 62 -272 107 -373 10 -23 19
-53 19 -66 0 -14 10 -30 24 -40 13 -8 27 -29 31 -45 3 -17 19 -46 35 -66 16
-20 32 -45 35 -56 4 -10 11 -19 17 -19 14 0 0 185 -17 227 -10 22 -10 35 -3
39 11 7 28 -13 28 -32 0 -18 48 -57 63 -51 18 7 30 81 21 133 -7 49 44 208 88
268 15 21 28 51 28 65 0 61 68 196 113 225 12 9 38 45 56 81 19 36 37 65 41
65 5 0 17 15 28 32 12 18 35 53 52 77 17 24 30 51 28 60 -4 22 -93 40 -116 23
-10 -7 -30 -20 -46 -30 -16 -9 -35 -24 -43 -32 -7 -8 -42 -46 -76 -85 -34 -38
-76 -84 -93 -100 -17 -17 -37 -42 -44 -55 -7 -14 -31 -40 -53 -59 -21 -19 -48
-54 -58 -78 -21 -50 -42 -55 -59 -14 -9 23 -9 34 0 52 13 23 8 253 -8 369 -11
80 -5 526 7 589 6 29 8 64 5 77 -6 24 -1 53 31 169 8 28 13 79 12 114 -2 71
-10 79 -79 80 -33 1 -38 -2 -44 -26 -3 -16 -9 -39 -14 -53 -7 -22 -15 -96 -25
-243 -2 -37 -30 -81 -45 -72 -5 3 -25 30 -45 60 -20 31 -46 66 -58 79 -12 13
-52 56 -90 97 -37 41 -80 88 -95 104 -33 34 -72 90 -72 100 0 4 24 5 54 1 44
-5 58 -3 72 11 13 14 32 17 77 16 61 -3 74 11 29 32 -25 11 -30 35 -7 35 9 0
30 -7 48 -17 30 -15 93 -25 247 -39 36 -3 84 -12 108 -20 23 -8 71 -14 105
-14 34 0 98 -3 142 -6 164 -11 557 -10 574 3 18 13 7 41 -20 53 -68 33 -161
46 -217 31 -15 -4 -40 -4 -57 0 -26 7 -215 22 -255 21 -34 -2 -199 21 -256 34
-33 8 -75 11 -92 8 -17 -4 -46 -1 -64 6 -33 13 -87 24 -188 39 -31 5 -69 15
-85 23 -17 9 -68 24 -115 33 -47 10 -97 24 -112 32 -15 7 -35 13 -45 13 -10 0
-36 9 -57 21 -21 11 -70 32 -110 46 -72 25 -125 56 -184 105 -39 34 -62 36
-62 6z"/>
<path d="M4265 3621 c-16 -4 -44 -15 -62 -24 -18 -9 -40 -17 -50 -17 -10 0
-38 -9 -61 -20 -24 -11 -70 -24 -102 -29 -32 -5 -76 -21 -97 -34 -21 -14 -60
-30 -88 -35 -86 -19 -158 -31 -210 -37 -112 -14 -130 -19 -133 -42 -3 -22 -15
-26 -92 -36 -8 -1 -15 -11 -15 -22 0 -28 33 -33 168 -27 l117 5 0 -25 c0 -19
-23 -48 -84 -109 -92 -91 -170 -162 -227 -206 -20 -16 -55 -46 -79 -68 -92
-86 -145 -135 -155 -146 -5 -6 -43 -43 -82 -83 -40 -41 -73 -77 -73 -82 0 -5
-21 -31 -46 -59 -47 -51 -69 -90 -58 -106 3 -5 25 -9 50 -9 39 0 47 4 62 30 9
16 34 37 54 46 21 9 40 24 43 33 6 20 109 112 145 130 14 7 41 28 60 47 59 57
194 165 220 177 14 6 51 35 83 64 32 29 65 53 73 53 8 0 14 5 14 10 0 6 18 17
40 26 22 9 40 19 40 23 0 9 107 93 140 111 13 7 73 61 134 120 61 60 130 123
153 142 23 18 45 41 48 51 4 9 19 24 34 32 33 16 114 109 104 119 -8 7 -28 6
-68 -3z"/>
<path d="M4167 3317 c-20 -17 -37 -39 -37 -47 1 -8 21 -37 46 -64 43 -47 46
-48 86 -42 40 7 41 6 25 -12 -26 -28 -21 -50 10 -54 21 -2 32 -12 45 -40 24
-50 48 -62 116 -53 67 8 82 14 82 29 0 20 -44 56 -68 56 -16 0 -22 6 -22 23 0
35 -15 49 -56 56 -37 6 -39 9 -39 41 0 29 -5 38 -35 54 -19 10 -42 33 -50 50
-21 43 -55 45 -103 3z"/>
<path d="M1087 3302 c-10 -10 -17 -22 -17 -27 0 -5 7 -17 17 -27 15 -17 15
-18 -8 -19 -13 -1 -34 0 -46 0 -23 2 -35 -11 -37 -40 -1 -10 -22 -32 -48 -48
-27 -17 -48 -37 -48 -44 0 -7 23 -23 52 -36 l52 -23 42 21 c26 13 44 30 48 45
3 14 16 26 29 30 13 3 29 18 36 33 7 15 21 33 32 41 27 19 24 32 -17 75 -39
41 -63 46 -87 19z"/>
<path d="M2649 3166 c-1 0 -2 -48 -4 -106 -1 -58 -5 -115 -9 -128 -11 -34 -39
-26 -65 20 -24 42 -24 42 -41 21 -21 -27 -33 -108 -20 -133 6 -10 10 -28 10
-40 0 -13 25 -46 63 -85 54 -54 73 -66 131 -84 75 -23 121 -27 131 -10 4 6 -8
34 -26 62 l-32 52 -2 148 c-1 96 -6 152 -13 159 -7 7 -12 20 -12 30 0 9 -6 21
-13 25 -7 4 -20 20 -29 34 -9 15 -28 29 -42 31 -14 3 -26 5 -27 4z"/>
<path d="M2991 3145 c-23 -14 -56 -25 -71 -25 -15 0 -33 -6 -39 -14 -10 -12
-8 -18 11 -29 13 -8 39 -18 58 -22 19 -4 54 -18 78 -31 45 -27 54 -53 31 -97
-23 -44 -101 -127 -125 -133 -16 -4 -24 -12 -22 -23 5 -20 38 -16 58 9 8 10
37 27 63 39 27 11 57 32 68 45 10 13 30 27 44 30 14 4 37 25 52 48 16 22 32
46 37 53 33 44 -60 165 -126 165 -18 0 -42 3 -53 5 -11 3 -39 -6 -64 -20z"/>
<path d="M827 3034 c-12 -12 -8 -44 6 -44 6 0 23 -6 37 -13 14 -8 40 -16 57
-20 26 -5 34 -2 48 20 17 25 17 27 -1 40 -10 7 -32 13 -50 13 -17 0 -44 3 -60
6 -16 3 -32 2 -37 -2z"/>
<path d="M2265 2962 c-50 -17 -108 -60 -136 -101 -40 -60 -33 -100 28 -158 24
-24 49 -43 55 -43 6 0 30 -9 52 -19 42 -20 65 -25 174 -41 58 -9 112 -1 112
16 0 19 -81 69 -144 88 -50 15 -156 95 -156 117 0 9 13 43 30 75 16 32 30 62
30 67 0 8 -16 8 -45 -1z"/>
<path d="M4525 2961 c-42 -5 -51 -10 -53 -28 -2 -13 0 -23 5 -24 66 -8 145 -5
159 5 16 12 16 14 -4 34 -12 12 -30 21 -39 20 -10 0 -40 -4 -68 -7z"/>
<path d="M710 2900 c-34 -26 -18 -39 56 -49 67 -10 114 6 114 38 0 24 -19 31
-88 31 -41 0 -64 -6 -82 -20z"/>
<path d="M3565 2846 c-14 -14 -25 -29 -25 -34 0 -14 51 -103 77 -135 13 -16
23 -35 23 -42 0 -8 17 -34 38 -59 66 -81 82 -104 82 -121 0 -21 17 -54 42 -81
19 -21 111 -244 104 -251 -2 -3 -39 3 -82 12 -47 10 -149 18 -258 20 -310 8
-384 17 -467 61 -26 13 -57 24 -69 24 -12 0 -33 9 -47 20 -14 11 -40 20 -58
20 -29 0 -71 19 -225 101 -19 10 -82 37 -140 60 -58 22 -112 47 -120 54 -9 8
-36 19 -60 24 -25 6 -67 22 -94 36 -27 14 -55 25 -63 25 -7 0 -22 6 -33 12
-27 17 -43 -1 -34 -37 5 -22 20 -34 70 -56 34 -16 65 -33 68 -38 3 -5 18 -12
33 -16 29 -7 135 -68 168 -96 11 -10 34 -21 50 -25 42 -10 203 -89 244 -119
22 -16 47 -25 71 -25 24 0 43 -7 54 -19 11 -12 38 -22 69 -26 51 -7 92 -26
112 -52 6 -7 41 -22 80 -33 38 -11 92 -31 120 -45 27 -13 84 -36 125 -49 115
-37 259 -91 323 -121 32 -15 82 -30 112 -34 30 -4 63 -15 73 -24 10 -9 32 -17
48 -17 16 0 56 -7 87 -15 32 -8 68 -15 81 -15 13 0 35 -9 49 -20 15 -12 40
-20 64 -20 21 0 53 -9 71 -20 39 -24 72 -18 72 11 0 12 -16 40 -35 63 -19 24
-54 88 -79 144 -24 56 -59 123 -78 149 -19 26 -56 89 -83 138 -26 50 -65 113
-86 140 -20 28 -42 67 -47 88 -11 40 -52 98 -114 162 -21 22 -64 72 -95 110
-66 82 -151 172 -176 186 -13 8 -23 4 -42 -15z"/>
<path d="M4589 2847 c-15 -11 -15 -15 6 -39 22 -26 23 -26 99 -16 42 6 76 15
76 20 0 4 -15 17 -32 28 -38 23 -123 27 -149 7z"/>
<path d="M706 2809 c-17 -13 -33 -18 -50 -13 -34 8 -66 -4 -66 -26 0 -14 11
-19 63 -24 63 -7 95 0 130 27 25 21 21 32 -18 44 -30 9 -38 8 -59 -8z"/>
<path d="M4715 2731 c-24 -5 -29 -11 -27 -31 4 -35 18 -40 107 -38 88 3 105
18 66 57 -22 22 -81 27 -146 12z"/>
<path d="M499 2673 c-26 -30 16 -53 96 -53 59 0 84 22 53 48 -21 16 -137 20
-149 5z"/>
<path d="M220 2657 c0 -14 6 -27 12 -29 8 -3 11 -20 9 -46 -1 -25 2 -42 8 -42
6 0 37 -27 68 -60 32 -33 65 -60 74 -60 27 0 69 -40 69 -65 0 -15 7 -26 21
-30 11 -4 24 -17 29 -31 5 -13 21 -26 34 -30 14 -3 28 -14 31 -23 3 -9 30 -43
60 -76 65 -70 57 -62 143 -146 104 -104 162 -167 162 -177 0 -5 6 -15 14 -21
21 -17 29 -105 32 -326 5 -446 7 -460 49 -535 20 -34 4 -33 466 -30 179 1 341
-1 360 -5 37 -8 69 -31 69 -50 0 -14 69 -80 93 -88 9 -4 17 -12 17 -20 0 -7
33 -46 73 -85 39 -40 80 -80 90 -89 9 -10 42 -42 72 -71 30 -29 55 -57 55 -62
0 -5 10 -10 22 -12 13 -2 29 -15 36 -30 7 -16 22 -33 33 -38 10 -6 68 -60 128
-120 112 -113 151 -135 151 -87 0 15 -9 29 -26 37 -14 8 -31 26 -37 40 -7 15
-43 55 -82 90 -38 36 -71 70 -73 77 -2 7 -11 14 -20 17 -10 3 -42 34 -72 67
-30 34 -97 103 -149 153 -124 119 -141 137 -238 239 -44 48 -92 91 -106 96
-23 9 -75 12 -167 10 -19 0 -48 0 -65 1 -90 4 -183 -2 -205 -15 -22 -12 -27
-11 -46 6 -19 18 -27 19 -85 10 -35 -6 -99 -11 -142 -13 -123 -4 -120 -10
-120 277 0 538 -1 558 -26 598 -12 21 -40 46 -61 57 -21 11 -47 34 -59 52 -11
18 -68 78 -127 133 -58 55 -137 130 -176 168 -38 37 -76 67 -84 67 -7 0 -18
10 -25 23 -14 27 -90 107 -102 107 -19 0 -156 154 -159 178 -4 34 -28 41 -28
9z"/>
<path d="M5014 2580 c-22 -32 -25 -43 -15 -53 10 -9 19 -5 42 23 16 19 28 41
27 49 -6 29 -28 21 -54 -19z"/>
<path d="M4611 2597 c-20 -20 -13 -46 14 -53 14 -4 28 -4 31 -1 3 3 20 1 37
-4 49 -14 104 33 65 57 -20 13 -134 14 -147 1z"/>
<path d="M660 2560 c-8 -5 -25 -10 -37 -10 -29 0 -39 -18 -20 -38 13 -12 21
-13 41 -4 17 7 35 8 58 1 69 -19 88 -4 48 39 -22 23 -64 29 -90 12z"/>
<path d="M4872 2448 c-33 -40 -94 -103 -134 -140 -100 -92 -99 -91 -133 -138
-16 -23 -46 -56 -65 -74 -79 -72 -150 -152 -150 -171 0 -11 14 -42 30 -70 16
-27 39 -68 51 -90 12 -22 34 -55 49 -75 29 -37 55 -119 41 -133 -4 -4 -57 -3
-117 1 -78 7 -113 6 -121 -2 -10 -9 -10 -43 -2 -156 12 -158 11 -152 8 -260
-3 -126 21 -116 -256 -114 -132 0 -245 4 -251 8 -6 4 -25 0 -42 -9 -17 -9 -35
-13 -40 -10 -5 3 -56 7 -114 8 -101 3 -108 2 -151 -25 -25 -15 -45 -34 -45
-41 0 -16 -182 -194 -215 -209 -14 -6 -25 -16 -25 -22 0 -6 -17 -27 -37 -48
-21 -21 -48 -49 -60 -63 -13 -14 -36 -28 -53 -32 -20 -4 -30 -11 -29 -22 4
-44 3 -46 -111 -167 -10 -11 -24 -32 -29 -47 -6 -15 -16 -27 -24 -27 -22 0
-130 -117 -124 -134 13 -33 54 -18 109 38 50 52 74 79 164 184 20 23 42 42 48
42 7 0 22 10 33 23 12 12 35 35 52 51 17 16 33 37 36 47 3 10 15 21 26 24 10
4 19 10 19 15 0 14 61 80 74 80 18 0 86 60 86 76 0 7 36 49 79 93 l79 79 125
7 c86 5 131 3 146 -4 15 -8 27 -9 41 -1 11 6 59 10 107 9 79 -2 144 -2 284 0
60 1 151 41 166 74 10 20 9 26 -3 31 -17 7 -18 38 -2 54 9 9 13 61 14 170 1
86 7 169 12 183 10 26 12 26 79 22 99 -8 128 9 136 78 7 53 -10 105 -39 122
-8 4 -14 15 -14 23 0 16 -41 85 -76 127 -17 20 -24 41 -24 69 0 41 20 67 128
173 13 13 28 27 32 32 45 43 160 176 160 183 0 5 18 22 41 37 25 16 50 45 65
74 13 26 33 54 45 62 12 9 19 23 17 33 -7 38 -35 24 -96 -48z"/>
<path d="M4482 2474 c-12 -8 -22 -24 -22 -35 0 -17 7 -19 78 -19 73 0 80 2
106 29 l27 28 -53 6 c-82 10 -112 8 -136 -9z"/>
<path d="M800 2440 c-8 -5 -25 -10 -36 -10 -12 0 -27 -7 -34 -16 -33 -39 57
-64 128 -35 36 15 40 30 14 54 -21 19 -49 22 -72 7z"/>
<path d="M4395 2376 c-26 -19 -13 -46 24 -46 16 0 43 -8 60 -17 29 -17 31 -17
57 3 42 31 39 40 -12 58 -58 20 -104 20 -129 2z"/>
<path d="M890 2353 c-41 -6 -70 -25 -70 -44 0 -25 30 -39 81 -39 l42 0 -23
-25 c-19 -20 -21 -27 -10 -40 25 -30 170 -7 170 26 0 21 -13 30 -54 39 -23 5
-30 11 -28 25 2 10 -8 28 -25 41 -28 23 -36 25 -83 17z"/>
<path d="M4300 2275 c-18 -22 -6 -42 29 -49 17 -3 43 -9 59 -12 20 -4 32 0 46
15 18 19 17 20 -23 40 -47 25 -94 27 -111 6z"/>
<path d="M4230 2182 c0 -37 80 -79 113 -60 29 16 19 36 -29 58 -58 25 -84 26
-84 2z"/>
<path d="M1046 2157 l-57 -29 41 -35 c22 -19 47 -48 56 -64 18 -37 38 -36 93
1 24 17 48 30 53 30 21 0 5 33 -25 50 -19 11 -39 31 -45 44 -16 35 -51 36
-116 3z"/>
<path d="M1216 1992 c-27 -15 -51 -32 -53 -38 -2 -6 7 -22 20 -35 19 -19 25
-39 30 -92 4 -42 2 -77 -5 -93 -17 -38 1 -51 51 -36 21 7 41 19 44 27 7 17 66
49 75 40 7 -7 -96 -105 -110 -105 -22 0 -48 -43 -48 -78 0 -47 6 -54 31 -39
27 17 37 -1 12 -21 -22 -18 -53 -72 -53 -95 0 -7 5 -18 12 -25 8 -8 25 3 68
48 35 36 66 60 79 60 12 0 21 -3 21 -6 0 -22 -89 -124 -109 -124 -15 0 -61
-86 -61 -114 0 -38 17 -40 49 -6 42 47 52 56 155 155 193 185 236 227 236 234
0 4 -10 16 -21 27 -12 10 -47 45 -78 76 -56 55 -58 57 -101 51 l-45 -6 23 25
c12 13 22 29 22 36 0 16 -36 33 -55 25 -14 -5 -16 -2 -11 14 8 25 -38 67 -66
60 -13 -4 -18 1 -18 17 0 23 -17 46 -34 46 -6 0 -33 -13 -60 -28z m94 -167
c-22 -23 -50 -34 -50 -18 0 15 35 43 53 43 20 0 20 -1 -3 -25z m140 -275 c0
-12 -28 -25 -36 -17 -9 9 6 27 22 27 8 0 14 -5 14 -10z"/>
<path d="M3770 1715 c-68 -23 -64 -38 39 -133 51 -48 137 -128 190 -177 88
-83 152 -135 166 -135 3 0 5 14 5 31 0 25 -14 45 -70 102 -38 40 -70 76 -70
80 0 17 46 -6 82 -41 43 -41 58 -35 51 21 -5 32 -14 44 -59 78 -30 22 -54 44
-54 49 0 12 -112 97 -147 111 -51 21 -98 26 -133 14z m209 -168 c6 -8 8 -17 4
-20 -7 -8 -33 11 -33 24 0 13 16 11 29 -4z"/>
<path d="M3665 1621 c-8 -26 3 -51 39 -87 17 -17 47 -49 66 -72 19 -22 47 -55
63 -72 15 -17 27 -35 27 -40 0 -5 15 -16 34 -24 19 -8 42 -28 50 -44 15 -30
70 -78 115 -102 19 -10 26 -9 38 3 14 13 13 17 -7 34 -12 10 -34 36 -48 58
-25 40 -49 67 -172 194 -36 37 -86 90 -111 119 -48 54 -83 67 -94 33z"/>
<path d="M4122 1609 c2 -7 10 -15 17 -17 8 -3 12 1 9 9 -2 7 -10 15 -17 17 -8
3 -12 -1 -9 -9z"/>
<path d="M1663 1600 c-13 -5 -23 -14 -23 -20 0 -10 -133 -169 -203 -243 -21
-22 -50 -56 -65 -76 -15 -20 -37 -46 -50 -59 -28 -27 -25 -46 10 -50 20 -2 38
13 101 88 43 49 82 90 88 90 20 0 -1 -50 -42 -102 -22 -28 -38 -56 -36 -62 2
-6 18 -15 36 -20 29 -8 36 -7 52 15 10 13 19 31 19 41 0 15 40 70 95 131 14
15 25 32 25 37 0 5 9 12 21 15 11 4 25 20 31 36 5 16 16 29 24 29 23 0 16 -17
-36 -87 -73 -98 -140 -203 -146 -229 -8 -31 16 -43 34 -16 8 12 21 22 28 22 7
0 20 13 28 29 16 30 80 91 96 91 14 0 12 -15 -5 -57 -19 -45 -20 -40 14 -48
60 -13 125 99 86 150 -13 17 -18 18 -36 7 -28 -18 -34 -10 -20 29 15 45 14 81
-5 107 -9 13 -14 32 -11 44 4 13 -2 28 -16 42 -13 11 -28 33 -35 49 -12 28
-23 31 -59 17z"/>
<path d="M3592 1558 c-5 -7 -13 -23 -16 -34 -4 -12 -16 -24 -26 -27 -15 -4
-20 -14 -20 -41 0 -39 -2 -41 -30 -26 -15 8 -21 6 -30 -9 -5 -11 -10 -29 -10
-40 0 -16 -6 -21 -28 -21 -15 0 -33 -5 -40 -12 -15 -15 -16 -54 -2 -63 6 -3
10 -12 10 -18 0 -7 -5 -4 -11 6 -5 9 -21 17 -33 17 -40 0 -49 -55 -16 -97 25
-32 28 -62 4 -42 -9 7 -20 23 -25 36 -10 26 -40 30 -62 9 -13 -13 -12 -23 5
-75 14 -42 26 -62 40 -67 25 -8 48 18 48 53 0 15 6 23 18 23 27 0 62 29 62 51
0 23 8 24 34 4 26 -20 66 -19 66 0 0 8 -13 36 -29 62 -32 52 -49 103 -34 103
16 0 61 -54 68 -82 4 -15 27 -46 52 -69 40 -37 47 -40 60 -26 13 13 13 18 -2
46 -9 18 -15 40 -13 49 3 12 15 2 41 -35 37 -51 93 -83 117 -68 16 10 13 19
-25 76 -19 30 -35 57 -35 62 0 4 -12 19 -27 32 -21 17 -25 27 -17 35 13 13 93
-59 117 -107 20 -38 75 -83 103 -83 23 0 23 0 6 38 -9 20 -36 62 -59 93 -24
31 -43 62 -43 70 0 8 -14 22 -30 31 -17 9 -34 27 -39 40 -15 37 -97 118 -119
118 -11 0 -24 -6 -30 -12z"/>
<path d="M1854 1195 c-10 -25 4 -45 31 -45 29 0 33 20 9 44 -19 20 -33 20 -40
1z"/>
<path d="M3186 1123 c-4 -4 -14 -23 -21 -40 -8 -18 -20 -33 -26 -33 -7 0 -23
-10 -35 -21 -22 -20 -22 -24 -8 -50 8 -16 17 -49 21 -74 3 -25 11 -45 18 -45
17 0 45 33 45 54 0 9 10 20 23 25 37 15 60 47 54 78 -15 80 -48 129 -71 106z"/>
<path d="M2285 1010 c-3 -6 1 -13 10 -16 19 -8 30 0 20 15 -8 14 -22 14 -30 1z"/>
<path d="M2334 962 c4 -10 -1 -38 -9 -62 -21 -58 -19 -92 6 -124 20 -25 23
-26 39 -11 20 18 32 108 19 141 -10 29 -63 82 -55 56z"/>
<path d="M3021 942 c-5 -10 -12 -42 -14 -71 -5 -63 -22 -86 -36 -49 -15 39
-28 42 -56 14 -30 -30 -32 -68 -7 -149 14 -45 26 -63 51 -78 42 -25 44 -25 27
15 -14 34 -18 153 -6 161 4 3 13 -2 20 -10 27 -32 67 -7 80 50 7 31 5 49 -12
87 -22 52 -32 58 -47 30z"/>
<path d="M2447 833 c-14 -22 -17 -120 -5 -142 27 -51 36 -39 55 67 7 45 -32
104 -50 75z"/>
<path d="M2812 733 c-7 -15 -19 -41 -28 -56 -14 -25 -14 -32 2 -80 22 -68 29
-75 54 -52 19 17 20 28 18 114 -2 76 -6 96 -18 99 -9 1 -21 -9 -28 -25z"/>
<path d="M2548 674 c-6 -72 3 -124 24 -138 24 -14 27 -8 34 62 6 58 5 63 -23
96 l-31 34 -4 -54z"/>
<path d="M2688 623 c-26 -4 -27 -5 -23 -71 5 -116 46 -160 72 -80 14 42 5 150
-12 153 -5 1 -22 0 -37 -2z"/>
</g>
</svg>
